HIERARCHY
ROOT Hips
{
	OFFSET 0.000000 71.427986 0.000000
	CHANNELS 6 Xposition Yposition Zposition Xrotation Yrotation Zrotation
	JOINT Pelvis
	{
		OFFSET 0.000000 0.000000 0.000000
		CHANNELS 3 Xrotation Yrotation Zrotation
		JOINT LeftUpLeg
		{
			OFFSET 6.797100 -2.508499 -1.318700
			CHANNELS 3 Xrotation Yrotation Zrotation
			JOINT LeftLeg
			{
				OFFSET 0.069008 -29.241863 0.690200
				CHANNELS 3 Xrotation Yrotation Zrotation
				JOINT LeftFoot
				{
					OFFSET -0.069008 -29.568123 -0.266800
					CHANNELS 3 Xrotation Yrotation Zrotation
					JOINT LeftToeBase
					{
						OFFSET 3.145500 -8.631000 16.059900
						CHANNELS 3 Xrotation Yrotation Zrotation
						End Site
						{
							OFFSET 0.000000 18.501587 0.000000
						}
					}
				}
			}
			JOINT Left_ShortSleeve
			{
				OFFSET 0.265923 -10.480953 1.153800
				CHANNELS 3 Xrotation Yrotation Zrotation
				End Site
				{
					OFFSET 1.725763 19.823879 0.000000
				}
			}
		}
		JOINT RightUpLeg
		{
			OFFSET -6.797100 -2.508499 -1.318700
			CHANNELS 3 Xrotation Yrotation Zrotation
			JOINT RightLeg
			{
				OFFSET -0.082453 -29.241932 0.688000
				CHANNELS 3 Xrotation Yrotation Zrotation
				JOINT RightFoot
				{
					OFFSET 0.082453 -29.568058 -0.264600
					CHANNELS 3 Xrotation Yrotation Zrotation
					JOINT RightToeBase
					{
						OFFSET -3.115300 -8.682800 16.113400
						CHANNELS 3 Xrotation Yrotation Zrotation
						End Site
						{
							OFFSET 0.000000 18.567114 0.000000
						}
					}
				}
			}
			JOINT Right_ShortSleeve
			{
				OFFSET -0.265923 -10.480953 1.153800
				CHANNELS 3 Xrotation Yrotation Zrotation
				End Site
				{
					OFFSET -1.725766 19.823910 0.000000
				}
			}
		}
	}
	JOINT Spine
	{
		OFFSET 0.000000 13.368103 0.470500
		CHANNELS 3 Xrotation Yrotation Zrotation
		JOINT Spine1
		{
			OFFSET 0.147000 13.837402 0.538800
			CHANNELS 3 Xrotation Yrotation Zrotation
			JOINT Spine2
			{
				OFFSET 0.168000 16.242897 -1.435500
				CHANNELS 3 Xrotation Yrotation Zrotation
				JOINT Neck
				{
					OFFSET 0.217200 18.631500 -1.679100
					CHANNELS 3 Xrotation Yrotation Zrotation
					JOINT Head
					{
						OFFSET 0.000000 6.599396 1.385900
						CHANNELS 3 Xrotation Yrotation Zrotation
						JOINT Hat
						{
							OFFSET -0.532200 27.220596 -10.096100
							CHANNELS 3 Xrotation Yrotation Zrotation
							End Site
							{
								OFFSET 0.000000 22.029861 0.000000
							}
						}
						JOINT HairD
						{
							OFFSET -10.777400 17.437393 -1.325900
							CHANNELS 3 Xrotation Yrotation Zrotation
							JOINT HairD1
							{
								OFFSET -3.290299 -11.051193 1.062200
								CHANNELS 3 Xrotation Yrotation Zrotation
								End Site
								{
									OFFSET 0.000000 11.579437 0.000000
								}
							}
						}
						JOINT HairB
						{
							OFFSET -10.777400 17.437393 1.467900
							CHANNELS 3 Xrotation Yrotation Zrotation
							JOINT HairB1
							{
								OFFSET -1.561200 -12.956299 3.590200
								CHANNELS 3 Xrotation Yrotation Zrotation
								End Site
								{
									OFFSET 0.000000 13.534866 0.000000
								}
							}
						}
						JOINT HairA
						{
							OFFSET 9.713100 17.437393 1.467900
							CHANNELS 3 Xrotation Yrotation Zrotation
							JOINT HairA1
							{
								OFFSET 1.561200 -12.956299 3.590200
								CHANNELS 3 Xrotation Yrotation Zrotation
								End Site
								{
									OFFSET 0.000000 13.534866 0.000000
								}
							}
						}
						JOINT HairC
						{
							OFFSET 9.713100 17.437393 -1.325900
							CHANNELS 3 Xrotation Yrotation Zrotation
							JOINT HairC1
							{
								OFFSET 3.290300 -11.051193 1.062200
								CHANNELS 3 Xrotation Yrotation Zrotation
								End Site
								{
									OFFSET 0.000000 11.579437 0.000000
								}
							}
						}
					}
				}
				JOINT LeftShoulder
				{
					OFFSET 5.101800 15.108002 -2.763700
					CHANNELS 3 Xrotation Yrotation Zrotation
					JOINT LeftArm
					{
						OFFSET 9.825497 2.506317 -1.597400
						CHANNELS 3 Xrotation Yrotation Zrotation
						JOINT LeftForeArm
						{
							OFFSET 21.966244 0.000000 0.000000
							CHANNELS 3 Xrotation Yrotation Zrotation
							JOINT LeftHand
							{
								OFFSET 33.879036 0.000000 0.000000
								CHANNELS 3 Xrotation Yrotation Zrotation
								JOINT LeftHandThumb1
								{
									OFFSET 6.715286 -2.359680 3.363841
									CHANNELS 3 Xrotation Yrotation Zrotation
									JOINT LeftHandThumb2
									{
										OFFSET 2.507072 -1.447464 1.447461
										CHANNELS 3 Xrotation Yrotation Zrotation
										JOINT LeftHandThumb3
										{
											OFFSET 2.898338 -1.673355 1.673357
											CHANNELS 3 Xrotation Yrotation Zrotation
											End Site
											{
												OFFSET -0.295959 3.727692 -0.131651
											}
										}
									}
								}
								JOINT LeftHandIndex1
								{
									OFFSET 14.190811 -0.254547 3.840278
									CHANNELS 3 Xrotation Yrotation Zrotation
									JOINT LeftHandIndex2
									{
										OFFSET 3.551727 0.000000 -0.000000
										CHANNELS 3 Xrotation Yrotation Zrotation
										JOINT LeftHandIndex3
										{
											OFFSET 2.894196 0.000000 0.000000
											CHANNELS 3 Xrotation Yrotation Zrotation
											End Site
											{
												OFFSET -1.000603 2.690872 0.366626
											}
										}
									}
								}
								JOINT LeftHandMiddle1
								{
									OFFSET 13.776489 0.000000 0.000000
									CHANNELS 3 Xrotation Yrotation Zrotation
									JOINT LeftHandMiddle2
									{
										OFFSET 3.438232 0.000000 0.000000
										CHANNELS 3 Xrotation Yrotation Zrotation
										JOINT LeftHandMiddle3
										{
											OFFSET 3.691551 0.000000 0.000000
											CHANNELS 3 Xrotation Yrotation Zrotation
											End Site
											{
												OFFSET -1.082298 3.499527 0.457670
											}
										}
									}
								}
								JOINT LeftHandRing1
								{
									OFFSET 13.966164 -0.268127 -3.067488
									CHANNELS 3 Xrotation Yrotation Zrotation
									JOINT LeftHandRing2
									{
										OFFSET 3.162567 0.000000 0.000000
										CHANNELS 3 Xrotation Yrotation Zrotation
										JOINT LeftHandRing3
										{
											OFFSET 3.324348 0.000000 0.000000
											CHANNELS 3 Xrotation Yrotation Zrotation
											End Site
											{
												OFFSET -0.861900 3.184998 0.405154
											}
										}
									}
								}
								JOINT LeftHandPinky1
								{
									OFFSET 13.131393 -0.168503 -5.746925
									CHANNELS 3 Xrotation Yrotation Zrotation
									JOINT LeftHandPinky2
									{
										OFFSET 2.849182 0.000000 0.000000
										CHANNELS 3 Xrotation Yrotation Zrotation
										JOINT LeftHandPinky3
										{
											OFFSET 2.805038 0.000000 0.000000
											CHANNELS 3 Xrotation Yrotation Zrotation
											End Site
											{
												OFFSET -0.882500 2.642609 0.325652
											}
										}
									}
								}
							}
							JOINT Left_Sleeve
							{
								OFFSET 6.592125 -0.646545 0.805568
								CHANNELS 3 Xrotation Yrotation Zrotation
								End Site
								{
									OFFSET -0.000179 20.275787 -0.000000
								}
							}
						}
					}
				}
				JOINT RightShoulder
				{
					OFFSET -5.731700 15.108002 -2.763700
					CHANNELS 3 Xrotation Yrotation Zrotation
					JOINT RightArm
					{
						OFFSET -9.825497 2.506317 -1.597400
						CHANNELS 3 Xrotation Yrotation Zrotation
						JOINT RightForeArm
						{
							OFFSET -21.966242 0.000000 0.000000
							CHANNELS 3 Xrotation Yrotation Zrotation
							JOINT RightHand
							{
								OFFSET -33.879032 0.000000 0.000000
								CHANNELS 3 Xrotation Yrotation Zrotation
								JOINT RightHandThumb1
								{
									OFFSET -6.715286 -2.359680 3.363841
									CHANNELS 3 Xrotation Yrotation Zrotation
									JOINT RightHandThumb2
									{
										OFFSET -2.507072 -1.447464 1.447461
										CHANNELS 3 Xrotation Yrotation Zrotation
										JOINT RightHandThumb3
										{
											OFFSET -2.898338 -1.673355 1.673357
											CHANNELS 3 Xrotation Yrotation Zrotation
											End Site
											{
												OFFSET 0.295959 3.727692 -0.131651
											}
										}
									}
								}
								JOINT RightHandIndex1
								{
									OFFSET -14.190811 -0.254547 3.840278
									CHANNELS 3 Xrotation Yrotation Zrotation
									JOINT RightHandIndex2
									{
										OFFSET -3.551727 0.000000 -0.000000
										CHANNELS 3 Xrotation Yrotation Zrotation
										JOINT RightHandIndex3
										{
											OFFSET -2.894196 0.000000 0.000000
											CHANNELS 3 Xrotation Yrotation Zrotation
											End Site
											{
												OFFSET 1.000603 2.690872 0.366626
											}
										}
									}
								}
								JOINT RightHandMiddle1
								{
									OFFSET -13.776489 0.000000 0.000000
									CHANNELS 3 Xrotation Yrotation Zrotation
									JOINT RightHandMiddle2
									{
										OFFSET -3.438232 0.000000 0.000000
										CHANNELS 3 Xrotation Yrotation Zrotation
										JOINT RightHandMiddle3
										{
											OFFSET -3.691551 0.000000 0.000000
											CHANNELS 3 Xrotation Yrotation Zrotation
											End Site
											{
												OFFSET 1.082298 3.499527 0.457670
											}
										}
									}
								}
								JOINT RightHandRing1
								{
									OFFSET -13.966164 -0.268127 -3.067488
									CHANNELS 3 Xrotation Yrotation Zrotation
									JOINT RightHandRing2
									{
										OFFSET -3.162567 0.000000 0.000000
										CHANNELS 3 Xrotation Yrotation Zrotation
										JOINT RightHandRing3
										{
											OFFSET -3.324348 0.000000 0.000000
											CHANNELS 3 Xrotation Yrotation Zrotation
											End Site
											{
												OFFSET 0.861900 3.184998 0.405154
											}
										}
									}
								}
								JOINT RightHandPinky1
								{
									OFFSET -13.131393 -0.168503 -5.746925
									CHANNELS 3 Xrotation Yrotation Zrotation
									JOINT RightHandPinky2
									{
										OFFSET -2.849182 0.000000 0.000000
										CHANNELS 3 Xrotation Yrotation Zrotation
										JOINT RightHandPinky3
										{
											OFFSET -2.805038 0.000000 0.000000
											CHANNELS 3 Xrotation Yrotation Zrotation
											End Site
											{
												OFFSET 0.882500 2.642609 0.325652
											}
										}
									}
								}
							}
							JOINT Right_Sleeve
							{
								OFFSET -6.592125 -0.646545 0.805568
								CHANNELS 3 Xrotation Yrotation Zrotation
								End Site
								{
									OFFSET 0.000179 20.275787 -0.000000
								}
							}
						}
					}
				}
				JOINT Bind_Right_JacketString
				{
					OFFSET -3.534800 11.969597 7.200700
					CHANNELS 3 Xrotation Yrotation Zrotation
					JOINT Bind_Right_JacketString1
					{
						OFFSET -0.319900 -6.102600 2.794100
						CHANNELS 3 Xrotation Yrotation Zrotation
						End Site
						{
							OFFSET 0.000000 6.719452 0.000000
						}
					}
				}
				JOINT Bind_Left_JacketString
				{
					OFFSET 2.904800 11.969597 7.200700
					CHANNELS 3 Xrotation Yrotation Zrotation
					JOINT Bind_Left_JacketString1
					{
						OFFSET 0.364800 -5.904503 3.186800
						CHANNELS 3 Xrotation Yrotation Zrotation
						End Site
						{
							OFFSET 0.000000 6.719513 0.000000
						}
					}
				}
				JOINT HairE
				{
					OFFSET 5.915200 17.612701 -11.592200
					CHANNELS 3 Xrotation Yrotation Zrotation
					JOINT HairE1
					{
						OFFSET 0.289200 -7.171898 -1.284500
						CHANNELS 3 Xrotation Yrotation Zrotation
						End Site
						{
							OFFSET 0.000000 7.291756 0.000000
						}
					}
				}
				JOINT HairF
				{
					OFFSET -0.864800 17.612701 -11.592200
					CHANNELS 3 Xrotation Yrotation Zrotation
					JOINT HairF1
					{
						OFFSET 0.000000 -14.087097 -2.127501
						CHANNELS 3 Xrotation Yrotation Zrotation
						End Site
						{
							OFFSET 0.000000 14.246841 0.000000
						}
					}
				}
				JOINT HairG
				{
					OFFSET -8.087700 17.612701 -11.592200
					CHANNELS 3 Xrotation Yrotation Zrotation
					JOINT HairG1
					{
						OFFSET -0.293600 -6.081398 -0.910100
						CHANNELS 3 Xrotation Yrotation Zrotation
						End Site
						{
							OFFSET 0.000000 6.156120 0.000000
						}
					}
				}
			}
		}
	}
	JOINT Pouch
	{
		OFFSET 0.000000 4.394501 10.847300
		CHANNELS 3 Xrotation Yrotation Zrotation
		End Site
		{
			OFFSET 0.000000 21.880577 0.000000
		}
	}
	JOINT Bag
	{
		OFFSET -13.229000 4.813004 -0.593300
		CHANNELS 3 Xrotation Yrotation Zrotation
		End Site
		{
			OFFSET 0.000000 21.880577 0.000000
		}
	}
	JOINT OccupyGuyFacialAnim_Joint
	{
		OFFSET 1.000000 -70.206398 -1.655000
		CHANNELS 3 Xrotation Yrotation Zrotation
		End Site
		{
			OFFSET 0.000000 21.880577 0.000000
		}
	}
}
MOTION
Frames: 5
Frame Time: 0.016667
-0.735911 58.334297 -0.049286 -4.312232 -74.803439 -3.548313 -0.000000 0.000000 0.000000 -40.047059 14.816878 47.343535 40.675962 -1.015916 -7.348369 3.844185 -1.112882 -19.056675 0.000000 0.000003 -0.000000 0.000003 0.000000 0.000002 -38.905109 -2.146976 -24.401735 63.677123 9.769176 -7.203096 -23.142949 -5.299669 19.374685 -0.000000 -0.000000 -0.000000 0.000002 -0.000001 -0.000000 2.954916 -0.381708 -1.308734 5.893828 -0.904742 -3.151096 5.893818 -0.904604 -3.151104 -2.451537 24.309792 7.456975 0.154236 27.772031 -8.534005 -0.000000 -0.000003 0.000000 -0.000000 -0.000003 0.000000 -0.000000 -0.000003 -0.000000 -0.000000 -0.000003 0.000000 -0.000000 -0.000003 0.000000 -0.000000 -0.000003 0.000000 -0.000000 -0.000003 0.000000 -0.000000 -0.000003 0.000000 -0.000000 -0.000003 0.000000 0.279786 -7.010232 -19.556602 -39.504066 -20.309130 -2.427278 -5.614200 -32.071560 -2.800581 4.686527 -29.138014 18.780623 18.604737 9.201156 -20.335724 9.366557 23.517115 3.907244 -0.000001 0.000005 -0.000000 5.062916 7.259557 -60.393489 0.009009 -4.396083 -76.234740 0.000003 -0.000004 -0.000001 -0.063976 4.758031 -60.986814 -0.080433 -4.896946 -84.974356 0.000002 -0.000001 0.000001 -0.034419 -0.057045 -61.362269 -0.169941 -1.351953 -91.625396 -0.000003 0.000001 -0.000003 -4.255087 -2.157309 -63.603179 -0.059602 -0.064776 -85.011082 -0.000002 0.000001 -0.000001 0.000001 0.000002 -0.000001 0.636239 13.855918 9.110356 35.455252 67.114422 -18.850870 0.649645 83.885310 -11.766971 -31.174059 -5.150272 -0.072252 15.959767 -4.187804 29.032207 -14.791943 -41.235495 -16.515531 -0.000002 -0.000000 0.000003 5.358225 -4.863601 67.585050 0.006248 4.394854 68.693419 0.000002 -0.000001 0.000002 -0.076809 -4.752209 70.834881 -0.076443 4.897914 82.216346 0.000000 0.000001 -0.000001 -1.164541 -6.475294 73.357482 -0.172062 1.351232 92.834367 0.000000 -0.000001 -0.000001 -5.344939 -12.802410 81.125230 -0.058399 0.065312 84.696012 -0.000002 0.000001 0.000001 0.000002 0.000000 -0.000000 0.000000 -0.000000 0.000001 0.000001 0.000000 0.000001 0.000000 -0.000000 0.000001 0.000000 -0.000000 0.000001 0.000000 -0.000000 0.000001 0.000001 0.000000 0.000001 0.000000 -0.000000 0.000001 0.000000 -0.000000 0.000001 0.000000 -0.000000 0.000001 0.000001 0.000000 0.000001 -0.000000 0.000000 0.000000 -0.000000 0.000000 0.000000 -0.000000 0.000000 0.000000 
-0.735916 58.334358 -0.049321 -4.312226 -74.803419 -3.548200 0.000000 0.000000 0.000000 -39.889363 14.651440 47.212491 40.706247 -0.802998 -7.330089 3.826841 -1.104994 -19.152916 -0.000000 -0.000000 0.000000 0.000004 0.000004 0.000002 -38.889434 -2.120152 -24.381110 63.672792 9.734982 -7.205465 -23.143585 -5.306113 19.394939 0.000000 -0.000000 -0.000000 0.000002 0.000000 -0.000001 2.954916 -0.381717 -1.308840 5.893829 -0.904743 -3.151095 5.893815 -0.904596 -3.151106 -2.481197 24.333316 7.459441 0.160616 27.801735 -8.536967 0.000001 0.000000 0.000000 0.000001 0.000000 0.000000 0.000001 0.000000 -0.000000 0.000001 0.000000 0.000001 0.000000 0.000000 0.000001 0.000001 0.000000 0.000001 0.000000 0.000000 0.000001 0.000001 0.000000 0.000000 0.000001 0.000000 0.000000 0.279785 -7.010239 -19.556601 -39.570025 -20.279807 -2.378964 -5.525920 -32.234190 -2.805760 4.608319 -29.480012 18.629566 18.604733 9.201160 -20.335725 9.366560 23.517117 3.907244 0.000000 0.000003 0.000000 5.062916 7.259559 -60.393489 0.009010 -4.396079 -76.234747 -0.000000 -0.000004 -0.000003 -0.063975 4.758042 -60.986814 -0.080442 -4.896946 -84.974356 -0.000001 0.000003 -0.000001 -0.034419 -0.057041 -61.362269 -0.169932 -1.351953 -91.625389 -0.000002 -0.000001 0.000001 -4.255085 -2.157308 -63.603179 -0.059603 -0.064774 -85.011082 -0.000001 0.000001 0.000003 0.000002 -0.000000 0.000001 0.636226 13.855914 9.110393 35.361033 66.921579 -19.125240 1.039626 84.331109 -12.064382 -30.137113 -3.581578 -2.922850 15.959777 -4.187802 29.032214 -14.791932 -41.235491 -16.515536 -0.000002 0.000003 -0.000000 5.358229 -4.863602 67.585050 0.006248 4.394851 68.693419 -0.000001 0.000001 -0.000001 -0.076805 -4.752210 70.834881 -0.076442 4.897915 82.216353 -0.000003 -0.000001 -0.000001 -1.164539 -6.475293 73.357482 -0.172062 1.351229 92.834367 -0.000000 0.000002 -0.000003 -5.344934 -12.802408 81.125230 -0.058401 0.065309 84.696005 -0.000001 0.000002 -0.000003 0.000000 -0.000000 0.000001 -0.000000 0.000000 0.000001 0.000001 -0.000000 0.000000 -0.000000 0.000000 0.000001 -0.000000 0.000000 0.000001 -0.000000 0.000000 0.000001 0.000001 -0.000000 0.000000 -0.000000 0.000000 0.000001 -0.000000 0.000000 0.000001 -0.000000 0.000000 0.000001 0.000001 -0.000000 0.000000 0.000000 0.000000 0.000000 0.000000 0.000000 0.000000 0.000000 0.000000 0.000000 
-0.727919 58.471672 -0.051954 -5.310910 -75.233837 -4.552672 -0.000000 -0.000001 -0.000000 -39.151601 14.879179 47.118121 40.256831 -0.249425 -7.217414 3.948368 -1.114566 -19.375942 -0.000000 -0.000001 0.000000 -0.000001 0.000001 -0.000000 -38.626547 -2.186610 -24.250370 63.218899 10.061112 -7.155304 -22.857047 -5.189991 19.195173 0.000000 -0.000000 -0.000000 0.000001 -0.000000 -0.000001 2.902169 -0.344971 -1.263950 5.790269 -0.823357 -3.057951 5.790283 -0.823172 -3.058010 -2.569102 24.400595 7.466810 0.176402 27.894283 -8.544355 -0.000000 -0.000001 -0.000000 -0.000000 -0.000001 -0.000000 -0.000000 -0.000001 0.000000 -0.000000 -0.000001 0.000000 0.000000 -0.000001 0.000000 -0.000000 -0.000001 0.000000 0.000000 -0.000001 0.000000 -0.000000 -0.000001 -0.000000 -0.000000 -0.000001 -0.000000 0.268777 -7.020027 -19.607416 -39.486895 -20.023342 -2.512443 -5.275123 -32.657139 -2.924883 4.324737 -29.568640 18.253880 18.604737 9.201160 -20.335719 9.366557 23.517118 3.907242 -0.000001 0.000005 -0.000001 5.062919 7.259561 -60.393489 0.009010 -4.396080 -76.234747 0.000004 -0.000004 -0.000001 -0.063974 4.758038 -60.986807 -0.080435 -4.896945 -84.974356 -0.000000 0.000001 0.000001 -0.034421 -0.057042 -61.362262 -0.169937 -1.351952 -91.625389 -0.000003 0.000004 0.000002 -4.255086 -2.157309 -63.603179 -0.059602 -0.064777 -85.011082 -0.000001 0.000003 -0.000000 -0.000003 -0.000001 -0.000002 0.634732 13.830917 9.149995 35.145046 66.734800 -18.516974 1.797340 83.924010 -12.613607 -28.913792 -1.718596 -3.791600 15.959768 -4.187802 29.032211 -14.791931 -41.235488 -16.515536 -0.000000 -0.000003 0.000000 5.358216 -4.863600 67.585043 0.006250 4.394853 68.693425 -0.000001 -0.000000 -0.000002 -0.076816 -4.752209 70.834888 -0.076444 4.897914 82.216346 0.000002 0.000000 -0.000001 -1.164550 -6.475290 73.357488 -0.172065 1.351235 92.834367 -0.000001 -0.000001 0.000001 -5.344942 -12.802408 81.125230 -0.058398 0.065313 84.696005 -0.000000 0.000003 -0.000001 0.000002 0.000000 -0.000000 0.000001 0.000000 0.000001 0.000001 -0.000000 0.000001 0.000001 0.000000 0.000000 0.000001 0.000000 0.000000 0.000001 0.000000 0.000001 0.000001 -0.000000 0.000001 0.000001 0.000000 0.000000 0.000001 0.000000 0.000000 0.000001 0.000000 0.000001 0.000001 -0.000000 0.000001 -0.000000 -0.000001 -0.000000 -0.000000 -0.000001 -0.000000 -0.000000 -0.000001 -0.000000 
-0.715383 58.636711 -0.069229 -6.747778 -75.828337 -5.998358 -0.000000 -0.000000 -0.000000 -38.230338 15.228487 47.068043 39.674137 0.421281 -7.089728 4.119821 -1.131531 -19.646623 0.000000 0.000004 -0.000000 0.000000 0.000000 -0.000001 -38.312184 -2.232844 -24.043666 62.683119 10.483803 -7.092985 -22.498322 -5.040637 18.925909 -0.000000 -0.000000 -0.000000 0.000000 -0.000000 0.000001 2.822444 -0.293273 -1.210703 5.633339 -0.706297 -2.949005 5.633329 -0.706349 -2.949008 -2.701130 24.509335 7.478629 0.204689 28.042592 -8.562599 0.000000 -0.000003 0.000000 0.000000 -0.000003 0.000000 0.000000 -0.000003 0.000000 0.000000 -0.000003 0.000000 0.000000 -0.000001 -0.000000 0.000000 -0.000003 0.000000 0.000000 -0.000001 -0.000000 0.000000 -0.000003 0.000000 0.000000 -0.000003 0.000000 0.235409 -7.052423 -19.747764 -38.990900 -19.413558 -3.073296 -4.884516 -33.341329 -3.229824 3.787427 -29.109836 17.675577 18.604732 9.201161 -20.335727 9.366559 23.517113 3.907244 -0.000002 0.000005 0.000000 5.062917 7.259559 -60.393489 0.009010 -4.396080 -76.234747 0.000001 -0.000001 -0.000000 -0.063974 4.758035 -60.986814 -0.080432 -4.896946 -84.974356 0.000002 -0.000002 0.000000 -0.034418 -0.057038 -61.362269 -0.169938 -1.351953 -91.625389 0.000001 0.000001 0.000001 -4.255085 -2.157304 -63.603179 -0.059601 -0.064775 -85.011082 0.000000 -0.000002 -0.000001 0.000003 -0.000005 -0.000003 0.630148 13.759756 9.265012 34.557923 66.432052 -17.348057 2.853358 83.375347 -13.338781 -27.579611 0.446925 -4.373097 15.959770 -4.187805 29.032211 -14.791937 -41.235491 -16.515534 -0.000000 0.000002 -0.000002 5.358224 -4.863601 67.585043 0.006247 4.394853 68.693425 -0.000001 0.000001 -0.000001 -0.076809 -4.752207 70.834888 -0.076444 4.897917 82.216353 -0.000001 0.000001 -0.000004 -1.164539 -6.475292 73.357482 -0.172062 1.351232 92.834367 0.000001 0.000001 0.000001 -5.344936 -12.802410 81.125230 -0.058401 0.065317 84.696019 -0.000000 0.000001 -0.000001 0.000000 -0.000000 0.000000 -0.000000 0.000000 0.000000 -0.000000 0.000000 0.000000 -0.000000 0.000000 0.000000 -0.000000 0.000000 0.000000 -0.000000 0.000000 0.000000 -0.000000 0.000000 0.000000 -0.000000 0.000000 0.000000 -0.000000 0.000000 0.000000 -0.000000 0.000000 0.000000 -0.000000 0.000000 0.000000 -0.000000 -0.000000 -0.000000 -0.000000 -0.000000 -0.000000 -0.000000 -0.000000 -0.000000 
-0.698729 58.826523 -0.100801 -8.623138 -76.521232 -7.884729 0.000000 -0.000000 -0.000000 -37.159972 15.681662 47.036432 38.946828 1.179710 -6.956481 4.357336 -1.160054 -19.939993 0.000000 -0.000001 -0.000000 -0.000002 0.000001 -0.000000 -37.937879 -2.261145 -23.772545 62.070307 10.952734 -7.021945 -22.080412 -4.871429 18.618507 -0.000000 -0.000000 -0.000000 0.000000 0.000001 -0.000001 2.736712 -0.233363 -1.148845 5.463877 -0.576421 -2.823614 5.463879 -0.576614 -2.823583 -2.878981 24.654572 7.494869 0.243574 28.241661 -8.588788 0.000001 -0.000001 0.000000 0.000001 -0.000001 0.000000 0.000001 -0.000001 0.000000 0.000001 -0.000001 -0.000000 0.000001 -0.000001 -0.000000 0.000001 -0.000001 -0.000000 0.000001 -0.000001 -0.000000 0.000001 -0.000001 0.000000 0.000001 -0.000001 0.000000 0.178885 -7.112255 -19.959754 -38.090039 -18.526642 -4.022172 -4.377005 -34.383678 -3.672010 3.181915 -28.539793 16.950667 18.604732 9.201158 -20.335729 9.366556 23.517113 3.907245 0.000001 0.000001 0.000000 5.062914 7.259557 -60.393489 0.009014 -4.396077 -76.234747 -0.000000 0.000002 0.000000 -0.063974 4.758035 -60.986814 -0.080432 -4.896945 -84.974356 0.000001 -0.000002 -0.000001 -0.034422 -0.057045 -61.362269 -0.169935 -1.351953 -91.625396 -0.000001 -0.000002 -0.000002 -4.255084 -2.157308 -63.603179 -0.059602 -0.064777 -85.011082 -0.000001 -0.000002 0.000001 -0.000002 0.000002 -0.000001 0.618020 13.645861 9.451068 33.426635 66.007727 -15.519190 3.993511 82.618849 -14.044004 -26.148309 2.831883 -4.678523 15.959768 -4.187805 29.032211 -14.791936 -41.235495 -16.515529 0.000002 -0.000001 0.000001 5.358229 -4.863601 67.585043 0.006250 4.394851 68.693425 -0.000001 -0.000000 -0.000001 -0.076809 -4.752209 70.834881 -0.076443 4.897914 82.216339 0.000002 -0.000001 0.000001 -1.164544 -6.475293 73.357482 -0.172062 1.351233 92.834360 0.000004 0.000001 0.000002 -5.344934 -12.802408 81.125224 -0.058399 0.065318 84.696012 0.000000 0.000001 0.000001 0.000003 -0.000000 0.000001 0.000000 0.000000 0.000000 0.000000 0.000000 -0.000000 0.000000 0.000000 -0.000000 0.000000 0.000000 -0.000000 0.000000 0.000000 0.000000 0.000000 0.000000 0.000000 0.000000 0.000000 -0.000000 0.000000 0.000000 -0.000000 0.000000 0.000000 0.000000 0.000000 0.000000 0.000000 0.000000 -0.000000 -0.000000 0.000000 -0.000000 -0.000000 0.000000 -0.000000 -0.000000 
